# xmcd
#
# Track frame offsets:
#	150
#	12685
#	24886
#	40513
#	56280
#	70784
#	81665
#	97494
#	108172
#	126010
#	144231
#	160749
#	176536
#	186317
#
# Disc length: 2676 seconds
#
# Revision: 0
# Processed by: cddbd v1.5.2PL0 Copyright (c) Steve Scherf et al.
# Submitted via: dBpowerAMP V4.0
#
DISCID=b60a720e
DTITLE=Hurley and The Blue Dots - Here To Rumble
DYEAR=2009
DGENRE=Blues
TTITLE0=01 Roadrunner
TTITLE1=02 Rockin' Daddy
TTITLE2=03 Mean Old Frisco
TTITLE3=04 Take A Little Chance
TTITLE4=05 Down In The Bottom
TTITLE5=06 Mojo Boogie
TTITLE6=07 You'll Be Mine
TTITLE7=08 You're So Fine
TTITLE8=09 I Can't Be Satisfied
TTITLE9=10 Here To Rumble
TTITLE10=11 Last Time I Fool Around With You
TTITLE11=12 Why Get Up
TTITLE12=13 That Ain't The Way To Do It
TTITLE13=14 Give Me Back My Wig
EXTD=
EXTT0=
EXTT1=
EXTT2=
EXTT3=
EXTT4=
EXTT5=
EXTT6=
EXTT7=
EXTT8=
EXTT9=
EXTT10=
EXTT11=
EXTT12=
EXTT13=
PLAYORDER=
